<?xml version="1.0" encoding="utf-8"?>
<!-- Generator: Adobe Illustrator 24.3.0, SVG Export Plug-In . SVG Version: 6.00 Build 0)  -->
<svg version="1.1" id="Layer_1" xmlns="http://www.w3.org/2000/svg" xmlns:xlink="http://www.w3.org/1999/xlink" x="0px" y="0px"
	 viewBox="0 0 60 60" style="enable-background:new 0 0 60 60;" xml:space="preserve">
<style type="text/css">
	.st0{fill:#FFFFFF;}
	.st1{fill:#505151;}
	.st2{fill:none;stroke:#FFFFFF;stroke-width:1.5;}
	.st3{fill:#FFFFFF;stroke:#FFFFFF;stroke-width:0.3;}
</style>
<g id="Group_508" transform="translate(-1281 -555)">
	<g id="Group_507" transform="translate(-79 -86)">
		<g transform="matrix(1, 0, 0, 1, 1360, 641)">
			<circle id="Ellipse_25-2" class="st0" cx="30" cy="29" r="24"/>
		</g>
		<g id="Group_423" transform="translate(3 -1)">
			<g id="Group_393" transform="translate(32 70)">
				<g id="Group_392" transform="translate(1331 577)">
					<circle id="Ellipse_24" class="st0" cx="24" cy="24" r="24"/>
				</g>
			</g>
			<g id="Group_398" transform="translate(32 69)">
				<g id="Group_392-2" transform="translate(1331 577)">
					<g id="Ellipse_24-2" transform="translate(1 2)">
						<circle class="st1" cx="23" cy="23" r="23"/>
						<circle class="st2" cx="23" cy="23" r="23.8"/>
					</g>
				</g>
			</g>
		</g>
	</g>
	<path id="Path_208" class="st3" d="M1316.7,574.5h-10.7c-2.6,0-4.6,2.1-4.6,4.6c0,0,0,0,0,0v8.6c0,2.6,2.1,4.6,4.6,4.6c0,0,0,0,0,0
		h0.7v3.5c0,0.1,0.1,0.2,0.2,0.3c0,0,0.1,0,0.1,0c0.1,0,0.2,0,0.2-0.1l3.8-3.8h5.7c2.6,0,4.6-2.1,4.6-4.6c0,0,0,0,0,0v-8.6
		C1321.3,576.6,1319.2,574.5,1316.7,574.5z M1320.6,587.7c0,2.2-1.8,4-4,4c0,0,0,0,0,0h-6l-0.3,0.3l-0.1,0.1l-0.2,0.2l-2.8,2.8v-3.1
		l0,0v-0.3h-1.3c-2.2,0-4-1.8-4-4c0,0,0,0,0,0v-8.6c0-2.2,1.8-4,4-4c0,0,0,0,0,0h10.7c2.2,0,4,1.8,4,4c0,0,0,0,0,0L1320.6,587.7
		L1320.6,587.7z"/>
</g>
</svg>
