<?xml version="1.0" encoding="utf-8"?>
<!-- Generator: Adobe Illustrator 22.1.0, SVG Export Plug-In . SVG Version: 6.00 Build 0)  -->
<svg version="1.0" id="Layer_1" xmlns="http://www.w3.org/2000/svg" xmlns:xlink="http://www.w3.org/1999/xlink" x="0px" y="0px"
	 viewBox="0 0 30 20" style="enable-background:new 0 0 30 20;" xml:space="preserve">
<style type="text/css">
	.st0{fill:none;stroke:#000000;stroke-width:0.75;stroke-miterlimit:10;}
	.st1{fill:none;stroke:#000000;stroke-width:0.75;stroke-linecap:round;stroke-miterlimit:10;}
</style>
<path class="st0" d="M0.6,11.2V3.4c0-1,0.8-1.9,1.9-1.9h16.5c1,0,1.9,0.8,1.9,1.9v7.8"/>
<path class="st1" d="M2.4,15.8c-1,0-1.9-0.8-1.9-1.8v-2.8h20.2v2.5v2.2H10.3"/>
<path class="st0" d="M22,15.8c0-1.5,1.2-2.7,2.7-2.7s2.7,1.2,2.7,2.7h1.6c0.3,0,0.5-0.2,0.5-0.5v-4.4c0-0.3-0.1-0.6-0.3-0.8l-3.3-4
	c-0.2-0.2-0.4-0.3-0.7-0.3h-4 M27.1,11.2h-4.2c-0.1,0-0.2-0.1-0.2-0.2V8c0-0.1,0.1-0.2,0.2-0.2h1.6c0.1,0,0.2,0,0.3,0.1l2.6,2.8
	C27.4,10.9,27.3,11.2,27.1,11.2z"/>
<path class="st0" d="M10.3,15.8c0,1.5-1.2,2.7-2.7,2.7s-2.7-1.2-2.7-2.7c0-1.5,1.2-2.7,2.7-2.7S10.3,14.4,10.3,15.8z"/>
<path class="st0" d="M27.4,15.8c0,1.5-1.2,2.7-2.7,2.7S22,17.3,22,15.8c0-1.5,1.2-2.7,2.7-2.7S27.4,14.4,27.4,15.8z"/>
</svg>
